<?xml version="1.0" standalone="no"?>
<!DOCTYPE svg PUBLIC "-//W3C//DTD SVG 20010904//EN"
 "http://www.w3.org/TR/2001/REC-SVG-20010904/DTD/svg10.dtd">
<svg version="1.0" xmlns="http://www.w3.org/2000/svg"
 width="288.000000pt" height="288.000000pt" viewBox="0 0 288.000000 288.000000"
 preserveAspectRatio="xMidYMid meet">
<metadata>
Created by potrace 1.11, written by Peter Selinger 2001-2013
</metadata>
<g transform="translate(0.000000,288.000000) scale(0.100000,-0.100000)"
fill="#000000" stroke="none">
<path d="M1187 2393 c-4 -3 -7 -21 -7 -40 l0 -33 -80 0 -80 0 0 -40 0 -40 -40
0 -40 0 0 -40 0 -40 -40 0 -40 0 0 -40 0 -40 -40 0 -40 0 0 -80 0 -80 -40 0
-40 0 0 -245 0 -245 40 0 40 0 0 -74 0 -75 -37 -3 -38 -3 -3 -77 -3 -77 -37
-3 -37 -3 -5 -120 -5 -119 -35 -1 -35 0 -3 -437 -2 -438 50 0 50 0 0 430 0
430 24 0 c55 0 56 3 56 130 0 88 3 118 13 117 6 0 24 1 40 1 l27 2 0 80 0 80
30 0 c28 0 30 -2 30 -39 0 -39 1 -40 38 -43 35 -3 37 -5 40 -40 3 -37 4 -38
43 -38 39 0 39 0 39 -39 0 -50 8 -53 135 -50 l100 2 3 -37 c4 -46 10 -47 192
-44 l145 3 3 38 3 37 105 0 c123 0 142 7 139 50 -1 16 1 31 4 31 3 1 16 3 28
4 45 5 55 14 51 47 -3 32 -1 33 37 38 38 5 40 7 41 40 0 32 3 35 30 35 l29 0
3 -77 c3 -75 4 -78 27 -79 14 -1 31 -2 38 -3 8 -1 13 -35 17 -121 l5 -120 38
-3 37 -3 0 -430 0 -429 50 0 50 0 0 424 c0 233 -3 431 -6 440 -4 10 -18 16
-40 16 l-34 0 0 104 c0 57 -3 111 -6 120 -4 11 -19 16 -43 16 l-36 0 3 45 c2
25 1 61 -2 80 -6 33 -9 35 -45 35 l-38 0 0 115 1 114 40 3 41 3 3 162 2 162
-42 3 c-49 3 -45 -8 -47 155 l-1 82 -37 3 c-21 2 -39 9 -39 16 -1 6 -2 23 -3
36 -1 21 -7 25 -38 28 -36 3 -38 5 -41 40 -3 35 -5 37 -40 40 -35 3 -37 5 -40
40 l-3 37 -77 3 -77 3 -3 38 -3 37 -243 0 c-133 0 -246 -3 -249 -7z m483 -113
l0 -40 80 0 80 0 0 -39 c0 -39 1 -40 38 -43 34 -3 37 -5 40 -38 4 -39 15 -50
54 -50 l27 0 3 -117 3 -118 40 -3 40 -3 -3 -154 -3 -155 -27 0 c-48 0 -51 -8
-54 -130 l-3 -115 -37 -3 c-37 -3 -38 -4 -38 -43 0 -39 0 -39 -40 -39 l-40 0
0 -40 0 -40 -120 0 -120 0 0 -40 0 -41 -157 3 -158 3 0 35 -1 35 -119 5 -120
5 -3 37 c-3 35 -5 37 -40 40 -35 3 -37 5 -40 40 -3 35 -5 37 -40 40 l-37 3 -3
78 c-3 81 -1 78 -57 81 -19 1 -20 9 -23 238 l-2 237 37 3 38 3 3 78 c3 74 7
83 36 78 27 -5 45 12 48 47 3 35 5 37 40 40 35 3 37 5 40 40 l3 37 78 3 77 3
0 33 c0 18 3 36 7 39 3 4 111 7 240 7 l233 0 0 -40z"/>
<path d="M1032 1878 l3 -203 35 0 35 0 3 203 2 202 -40 0 -40 0 2 -202z"/>
<path d="M1755 2068 c-3 -8 -4 -99 -3 -203 l3 -190 40 0 40 0 0 200 0 200 -38
3 c-24 2 -39 -1 -42 -10z"/>
<path d="M1194 1667 c-3 -8 -4 -45 -2 -83 l3 -69 37 -3 c35 -3 37 -5 40 -40
l3 -37 160 0 160 0 3 37 c3 35 5 37 40 40 l37 3 0 80 0 80 -40 0 -40 0 -5 -78
c-3 -42 -8 -77 -12 -77 -5 0 -76 0 -159 0 l-150 0 2 68 c1 38 -1 74 -5 80 -10
16 -65 15 -72 -1z"/>
<path d="M950 430 l0 -200 80 0 80 0 0 41 0 40 38 -3 c34 -3 37 -6 42 -38 l5
-35 80 -3 81 -3 -4 41 -4 41 38 -3 c38 -3 39 -4 39 -43 l1 -40 44 0 45 0 3 77
3 77 37 3 c36 3 37 4 40 46 l3 42 -40 0 c-40 0 -41 1 -41 35 l0 34 73 3 72 3
3 43 3 43 -123 -3 -122 -3 -1 -35 c-1 -33 -3 -35 -35 -35 -33 0 -35 2 -38 38
l-3 38 -77 -3 -77 -3 -3 -38 c-3 -37 -4 -38 -40 -35 -35 3 -37 5 -40 41 l-3
37 -80 0 -79 0 0 -200z m160 81 c0 -39 1 -40 38 -43 35 -3 37 -5 40 -41 l3
-38 -38 3 c-36 3 -38 5 -41 41 -3 36 -4 37 -43 37 -39 0 -39 0 -39 40 l0 40
40 0 c40 0 40 0 40 -39z m242 -2 c-4 -39 -5 -40 -41 -37 -29 2 -37 7 -39 26
-6 40 5 52 45 52 l39 0 -4 -41z m73 -79 c0 -33 -2 -35 -35 -35 -29 0 -36 4
-38 23 -6 40 5 54 40 50 30 -3 33 -6 33 -38z m-315 -80 l0 -40 -40 0 c-39 0
-40 1 -40 33 0 42 5 47 47 47 32 0 33 -1 33 -40z m246 24 c-3 -9 -6 -27 -6
-40 0 -23 -3 -25 -37 -22 -31 2 -39 7 -41 26 -6 41 5 52 49 52 33 0 40 -3 35
-16z"/>
</g>
</svg>
